<svg xmlns="http://www.w3.org/2000/svg" width="379" height="664" fill="none"><g stroke="#D0D5F6" stroke-width="2" filter="url(#a)"><path d="M176.71-103S23.58-70.57 17.273 16.074c-6.307 86.643 231.598 17.186 136.358 198-95.241 180.813-181.318 185.289-136.358 298C62.233 624.785 182.96 683.953 323.21 639.2c140.251-44.754 153.453-332.126 153.453-332.126"/><path d="M218.7-101S98.575-72.519 93.628 3.575c-4.948 76.093 181.679 15.094 106.966 173.89C125.882 336.262 58.359 340.192 93.628 439.179c35.269 98.986 129.974 150.95 239.995 111.646C443.643 511.521 454 259.141 454 259.141"/></g><defs><filter id="a" width="761.663" height="767.178" x="0" y="-103.978" color-interpolation-filters="sRGB" filterUnits="userSpaceOnUse"><feFlood flood-opacity="0" result="BackgroundImageFix"/><feColorMatrix in="SourceAlpha" result="hardAlpha" values="0 0 0 0 0 0 0 0 0 0 0 0 0 0 0 0 0 0 127 0"/><feOffset dy="4"/><feGaussianBlur stdDeviation="2"/><feComposite in2="hardAlpha" operator="out"/><feColorMatrix values="0 0 0 0 0 0 0 0 0 0 0 0 0 0 0 0 0 0 0.25 0"/><feBlend in2="BackgroundImageFix" result="effect1_dropShadow_0_103"/><feBlend in="SourceGraphic" in2="effect1_dropShadow_0_103" result="shape"/></filter></defs></svg>